<?xml version="1.0" encoding="utf-8"?>
<!-- Generator: Adobe Illustrator 19.2.1, SVG Export Plug-In . SVG Version: 6.00 Build 0)  -->
<svg version="1.1" id="Camada_1" xmlns="http://www.w3.org/2000/svg" xmlns:xlink="http://www.w3.org/1999/xlink" x="0px" y="0px"
	 viewBox="0 0 482.2 765.9" style="enable-background:new 0 0 482.2 765.9;" xml:space="preserve">
<style type="text/css">
	.st0{opacity:0.7;}
	.st1{fill:#00DBC3;}
	.st2{fill:#C6EBC6;}
	.st3{fill:#00A900;}
	.st4{fill:#00BB91;}
	.st5{fill:#0097A4;}
	.st6{fill:none;stroke:#6ED4C1;stroke-miterlimit:10;}
	.st7{fill:#009900;}
	.st8{fill:#6FD3C1;}
	.st9{fill:#FFFFFF;}
	.st10{fill:#008E95;}
	.st11{fill:#00CEB8;}
	.st12{opacity:0.5;fill:#7CD8CA;}
</style>
<g class="st0">
	<polygon class="st1" points="0,362.7 0,390 178,390 178,301.6 79.8,196 0,196 	"/>
	<polygon class="st2" points="53,198 53,1 331.6,1 116.3,240.2 	"/>
	<polygon class="st3" points="47,196 81.8,196 119.6,237 91,267.5 47,223.7 	"/>
	<rect x="2" y="196" class="st4" width="14" height="17"/>
	<polygon class="st4" points="1.2,247 24.2,247 67,292.5 2.1,363 	"/>
	<polygon class="st5" points="30.1,499.7 69.7,456 273.5,456 306.3,493.9 165.7,656.4 	"/>
	<g>
		<line class="st6" x1="272.2" y1="122.1" x2="281.8" y2="112.3"/>
		<line class="st6" x1="272.2" y1="141.8" x2="303.3" y2="111.8"/>
		<line class="st6" x1="272.2" y1="151.7" x2="313.4" y2="111.8"/>
		<line class="st6" x1="272.2" y1="161.6" x2="322.5" y2="112.4"/>
		<line class="st6" x1="272.2" y1="171.4" x2="331.7" y2="111.8"/>
		<line class="st6" x1="272.2" y1="181.3" x2="340.2" y2="111.8"/>
		<line class="st6" x1="272.2" y1="191.1" x2="351" y2="111.8"/>
		<line class="st6" x1="272.2" y1="201" x2="361.5" y2="111.8"/>
		<line class="st6" x1="272.2" y1="132" x2="292.8" y2="111.8"/>
		<line class="st6" x1="361.5" y1="190.8" x2="351.9" y2="200.6"/>
		<line class="st6" x1="362.5" y1="171.1" x2="331.4" y2="201.1"/>
		<line class="st6" x1="361.5" y1="161.2" x2="320.3" y2="201.1"/>
		<line class="st6" x1="361.5" y1="151.4" x2="311.3" y2="200.5"/>
		<line class="st6" x1="361.5" y1="141.5" x2="302" y2="201.1"/>
		<line class="st6" x1="361.5" y1="131.6" x2="293.5" y2="201.1"/>
		<line class="st6" x1="361.5" y1="121.8" x2="282.7" y2="201.1"/>
		<line class="st6" x1="362.5" y1="180.9" x2="341.9" y2="201.1"/>
	</g>
	<polygon class="st7" points="273.5,358.8 331.7,294.7 316.9,277 233.2,277 215.2,295.1 	"/>
	<polygon class="st8" points="292.1,603.5 321.4,573 453.3,573 482.2,603.5 387.1,704 	"/>
	<polygon class="st9" points="390.4,585 410.6,585 394.7,618 410.6,618 374.3,668.4 384.5,627 370.3,627 	"/>
	<polygon class="st10" points="186.8,719 209.4,695 313.4,695 335.5,719 288.2,766.5 228,766 	"/>
	<polyline class="st11" points="0,727 0,703.3 166,527.2 166,571.5 0,750.5 0,727 	"/>
	<g>
		<g>
			<path class="st10" d="M248,660.2c11.1,0,22.2,0,33.4,0c3.9,0,3.9-6,0-6c-11.1,0-22.2,0-33.4,0C244.1,654.2,244.1,660.2,248,660.2
				L248,660.2z"/>
		</g>
	</g>
	<g>
		<g>
			<path class="st10" d="M261.6,639.5c0,11.1,0,22.2,0,33.4c0,3.9,6,3.9,6,0c0-11.1,0-22.2,0-33.4
				C267.6,635.6,261.6,635.6,261.6,639.5L261.6,639.5z"/>
		</g>
	</g>
	<g>
		<g>
			<path class="st10" d="M273.9,643.3c-7.9,7.9-15.7,15.7-23.6,23.6c-2.7,2.7,1.5,7,4.2,4.2c7.9-7.9,15.7-15.7,23.6-23.6
				C280.9,644.8,276.7,640.6,273.9,643.3L273.9,643.3z"/>
		</g>
	</g>
	<g>
		<g>
			<path class="st10" d="M278.1,666.8c-7.9-7.9-15.7-15.7-23.6-23.6c-2.7-2.7-7,1.5-4.2,4.2c7.9,7.9,15.7,15.7,23.6,23.6
				C276.6,673.8,280.9,669.6,278.1,666.8L278.1,666.8z"/>
		</g>
	</g>
</g>
<polygon class="st12" points="151.5,765.9 117,725.1 117,765.4 "/>
</svg>
