<?xml version="1.0" encoding="utf-8"?>
<!-- Generator: Adobe Illustrator 19.2.1, SVG Export Plug-In . SVG Version: 6.00 Build 0)  -->
<svg version="1.1" id="Camada_1" xmlns="http://www.w3.org/2000/svg" xmlns:xlink="http://www.w3.org/1999/xlink" x="0px" y="0px"
	 viewBox="0 0 509.1 765.9" style="enable-background:new 0 0 509.1 765.9;" xml:space="preserve">
<style type="text/css">
	.st0{fill:#009900;}
	.st1{opacity:0.7;}
	.st2{fill:#35ADA9;}
	.st3{fill:#006D44;}
	.st4{opacity:0.23;fill:#00DBC3;}
	.st5{opacity:0.5;fill:#009900;}
	.st6{opacity:9.000000e-02;fill:#6ED4C1;}
	.st7{fill:#00CEB8;}
	.st8{opacity:0.45;fill:#39B54A;}
	.st9{fill:none;stroke:#6ED4C1;stroke-miterlimit:10;}
</style>
<polyline class="st0" points="512.1,766.6 512,740.2 512,720 467,720 446.6,740.8 470,766.7 "/>
<g class="st1">
	<polygon class="st2" points="309,521.8 380.2,449 509.4,449 309,649.3 	"/>
	<polygon class="st3" points="309,364 309,232.2 509.4,433 380.2,433 	"/>
	<polygon class="st4" points="508.5,137 369,137 369,55.8 405,0 512,0 	"/>
	<polyline class="st2" points="356.8,-0.6 314.3,58 258,58 257.8,-0.7 	"/>
	<polygon class="st5" points="160.6,120.1 190.8,90 302.4,90 329.5,116.7 247.8,202.8 	"/>
	<polygon class="st6" points="32.5,0 175.6,0 208.9,39.4 106.1,141.2 0,40.3 	"/>
	<polygon class="st7" points="322.8,667.5 510,480.2 510,522.7 363.5,668.3 	"/>
	<polygon class="st8" points="352.2,306.2 426.1,230 509,230 509,274.7 426.1,375 352.4,375 	"/>
	<g>
		<line class="st9" x1="353.3" y1="308.8" x2="361.1" y2="300.7"/>
		<line class="st9" x1="353.3" y1="324.8" x2="378.6" y2="300.3"/>
		<line class="st9" x1="353.3" y1="332.9" x2="386.9" y2="300.3"/>
		<line class="st9" x1="353.3" y1="340.9" x2="394.3" y2="300.9"/>
		<line class="st9" x1="353.3" y1="349" x2="401.8" y2="300.3"/>
		<line class="st9" x1="353.3" y1="357" x2="408.8" y2="300.3"/>
		<line class="st9" x1="353.3" y1="365.1" x2="417.6" y2="300.3"/>
		<line class="st9" x1="353.3" y1="373.1" x2="426.2" y2="300.3"/>
		<line class="st9" x1="353.3" y1="316.8" x2="370.1" y2="300.3"/>
		<line class="st9" x1="426.2" y1="364.8" x2="418.3" y2="372.8"/>
		<line class="st9" x1="426.9" y1="348.7" x2="401.6" y2="373.2"/>
		<line class="st9" x1="426.2" y1="340.7" x2="392.6" y2="373.2"/>
		<line class="st9" x1="426.2" y1="332.6" x2="385.2" y2="372.7"/>
		<line class="st9" x1="426.2" y1="324.6" x2="377.6" y2="373.2"/>
		<line class="st9" x1="426.2" y1="316.5" x2="370.7" y2="373.2"/>
		<line class="st9" x1="426.2" y1="308.5" x2="361.9" y2="373.2"/>
		<line class="st9" x1="426.9" y1="356.8" x2="410.1" y2="373.2"/>
	</g>
</g>
</svg>
