<?xml version="1.0" encoding="utf-8"?>
<!-- Generator: Adobe Illustrator 19.2.1, SVG Export Plug-In . SVG Version: 6.00 Build 0)  -->
<svg version="1.1" id="Camada_1" xmlns="http://www.w3.org/2000/svg" xmlns:xlink="http://www.w3.org/1999/xlink" x="0px" y="0px"
	 viewBox="0 0 515 190" style="enable-background:new 0 0 515 190;" xml:space="preserve">
<style type="text/css">
	.st0{fill:#A5CA30;}
	.st1{fill:#585857;}
	.st2{fill:#859C25;}
	.st3{fill:#9FBD37;}
</style>
<g>
	<path class="st0" d="M149.6,183.8c-0.9,0.7-2.1,1.3-3.5,1.6c-1.5,0.3-2.9,0.5-4.4,0.5c-1.8,0-3.5-0.3-5.1-0.9
		c-1.6-0.6-3-1.7-4.1-3.1c-1.2-1.5-2.1-3.4-2.8-5.7c-0.7-2.4-1-5.3-1-8.7c0-3.6,0.4-6.6,1.1-8.9c0.8-2.4,1.8-4.3,3-5.7
		c1.2-1.4,2.6-2.4,4.2-3c1.6-0.6,3.2-0.9,4.8-0.9c1.7,0,3.1,0.1,4.3,0.4c1.2,0.3,2.2,0.6,3,0.9l-1.3,5.6c-0.6-0.3-1.4-0.6-2.3-0.8
		c-0.9-0.2-1.9-0.3-3.1-0.3c-2.3,0-4.1,1-5.4,3c-1.2,2-1.9,5.2-1.9,9.5c0,1.9,0.1,3.6,0.4,5.1c0.3,1.5,0.7,2.9,1.4,4
		c0.6,1.1,1.4,2,2.4,2.6c1,0.6,2.1,0.9,3.5,0.9c1.2,0,2.2-0.2,3-0.5c0.8-0.3,1.6-0.7,2.3-1.1L149.6,183.8z"/>
	<path class="st0" d="M150.4,167.4c0-6,1-10.6,3.1-13.8c2.1-3.1,5.2-4.7,9.4-4.7c2.2,0,4.1,0.4,5.7,1.3c1.6,0.9,2.9,2.1,3.9,3.7
		c1,1.6,1.8,3.6,2.3,5.8c0.5,2.3,0.7,4.8,0.7,7.6c0,6-1.1,10.6-3.2,13.8c-2.1,3.1-5.2,4.7-9.4,4.7c-2.2,0-4.1-0.4-5.7-1.3
		c-1.6-0.9-2.9-2.1-3.9-3.7c-1-1.6-1.8-3.6-2.2-5.8C150.7,172.8,150.4,170.2,150.4,167.4 M157.1,167.4c0,1.8,0.1,3.5,0.3,5
		c0.2,1.5,0.5,2.9,1,4c0.5,1.1,1.1,2,1.8,2.6c0.7,0.6,1.6,1,2.7,1c2,0,3.4-1,4.4-3c1-2,1.5-5.2,1.5-9.6c0-1.7-0.1-3.4-0.3-4.9
		c-0.2-1.5-0.5-2.9-1-4c-0.5-1.1-1.1-2-1.8-2.7c-0.7-0.7-1.7-1-2.8-1C159.1,154.8,157.1,159,157.1,167.4"/>
	<path class="st0" d="M179.3,149.7c0.6-0.1,1.3-0.2,2.1-0.2c0.8,0,1.5-0.1,2.3-0.2c0.8,0,1.6-0.1,2.3-0.1c0.7,0,1.4,0,2,0
		c2.8,0,5.1,0.4,7,1.3c1.9,0.9,3.4,2.1,4.5,3.7c1.1,1.6,1.9,3.5,2.4,5.7c0.5,2.2,0.7,4.7,0.7,7.4c0,2.5-0.2,4.8-0.7,7.1
		c-0.5,2.2-1.3,4.2-2.4,5.9c-1.2,1.7-2.7,3.1-4.7,4.1c-2,1-4.4,1.5-7.4,1.5c-0.4,0-1,0-1.8-0.1c-0.7,0-1.5-0.1-2.3-0.1
		c-0.8,0-1.6-0.1-2.3-0.2c-0.7,0-1.3-0.1-1.7-0.2V149.7z M188.6,155c-0.5,0-1.1,0-1.7,0c-0.6,0-1,0.1-1.3,0.1v24.5
		c0.1,0,0.3,0.1,0.5,0.1c0.3,0,0.5,0,0.8,0.1c0.3,0,0.6,0,0.8,0c0.3,0,0.4,0,0.5,0c1.5,0,2.8-0.4,3.8-1.1c1-0.7,1.8-1.7,2.3-2.8
		c0.6-1.2,1-2.5,1.2-4.1c0.2-1.5,0.3-3.2,0.3-4.8c0-1.6-0.1-3.1-0.3-4.5c-0.2-1.5-0.5-2.7-1.1-3.8c-0.5-1.1-1.3-2-2.2-2.6
		C191.4,155.4,190.1,155,188.6,155"/>
	<rect x="207" y="149.6" class="st0" width="6.4" height="35.5"/>
	<polygon class="st0" points="218.5,149.6 236.3,149.6 236.3,155.5 224.9,155.5 224.9,164.8 235.4,164.8 235.4,170.7 224.9,170.7 
		224.9,185.2 218.5,185.2 	"/>
	<rect x="240.3" y="149.6" class="st0" width="6.4" height="35.5"/>
	<path class="st0" d="M270.6,183.8c-0.9,0.7-2.1,1.3-3.5,1.6c-1.5,0.3-2.9,0.5-4.4,0.5c-1.8,0-3.5-0.3-5.1-0.9
		c-1.6-0.6-3-1.7-4.1-3.1c-1.2-1.5-2.1-3.4-2.8-5.7c-0.7-2.4-1-5.3-1-8.7c0-3.6,0.4-6.6,1.1-8.9c0.8-2.4,1.8-4.3,3-5.7
		c1.2-1.4,2.6-2.4,4.2-3c1.6-0.6,3.2-0.9,4.8-0.9c1.7,0,3.1,0.1,4.3,0.4c1.2,0.3,2.2,0.6,3,0.9l-1.3,5.6c-0.6-0.3-1.4-0.6-2.3-0.8
		c-0.9-0.2-1.9-0.3-3.1-0.3c-2.3,0-4.1,1-5.4,3c-1.2,2-1.9,5.2-1.9,9.5c0,1.9,0.1,3.6,0.4,5.1c0.3,1.5,0.7,2.9,1.4,4
		c0.6,1.1,1.4,2,2.4,2.6c1,0.6,2.1,0.9,3.5,0.9c1.2,0,2.2-0.2,3-0.5c0.8-0.3,1.6-0.7,2.3-1.1L270.6,183.8z"/>
	<path class="st0" d="M288.6,177h-8.4l-2.1,8.1h-6.3l10.3-35.8h5l10.4,35.8h-6.7L288.6,177z M281.6,171.9h5.9l-2-8.3l-0.8-5.6h-0.2
		l-0.9,5.6L281.6,171.9z"/>
	<polygon class="st0" points="305.7,164.1 305.7,185.2 299.7,185.2 299.7,149.4 304.6,149.4 316.5,172.3 316.5,149.7 322.5,149.7 
		322.5,185.4 317.6,185.4 	"/>
	<path class="st0" d="M327.1,149.7c0.6-0.1,1.3-0.2,2.1-0.2c0.8,0,1.5-0.1,2.3-0.2c0.8,0,1.6-0.1,2.3-0.1c0.7,0,1.4,0,2,0
		c2.8,0,5.1,0.4,7,1.3c1.9,0.9,3.4,2.1,4.5,3.7c1.1,1.6,1.9,3.5,2.4,5.7c0.5,2.2,0.7,4.7,0.7,7.4c0,2.5-0.2,4.8-0.7,7.1
		c-0.5,2.2-1.3,4.2-2.4,5.9c-1.2,1.7-2.7,3.1-4.7,4.1c-2,1-4.4,1.5-7.4,1.5c-0.4,0-1,0-1.8-0.1c-0.7,0-1.5-0.1-2.3-0.1
		c-0.8,0-1.6-0.1-2.3-0.2c-0.7,0-1.3-0.1-1.7-0.2V149.7z M336.4,155c-0.5,0-1.1,0-1.6,0c-0.6,0-1,0.1-1.3,0.1v24.5
		c0.1,0,0.3,0.1,0.5,0.1c0.3,0,0.5,0,0.8,0.1c0.3,0,0.6,0,0.8,0c0.3,0,0.4,0,0.5,0c1.5,0,2.8-0.4,3.8-1.1c1-0.7,1.8-1.7,2.3-2.8
		c0.6-1.2,1-2.5,1.2-4.1c0.2-1.5,0.3-3.2,0.3-4.8c0-1.6-0.1-3.1-0.3-4.5c-0.2-1.5-0.5-2.7-1.1-3.8c-0.5-1.1-1.3-2-2.2-2.6
		C339.2,155.4,338,155,336.4,155"/>
	<path class="st0" d="M353.4,167.4c0-6,1-10.6,3.1-13.8c2.1-3.1,5.2-4.7,9.4-4.7c2.2,0,4.1,0.4,5.7,1.3c1.6,0.9,2.9,2.1,3.9,3.7
		c1,1.6,1.8,3.6,2.3,5.8c0.5,2.3,0.7,4.8,0.7,7.6c0,6-1.1,10.6-3.2,13.8c-2.1,3.1-5.2,4.7-9.4,4.7c-2.2,0-4.1-0.4-5.7-1.3
		c-1.6-0.9-2.9-2.1-3.9-3.7c-1-1.6-1.8-3.6-2.2-5.8C353.7,172.8,353.4,170.2,353.4,167.4 M360.1,167.4c0,1.8,0.1,3.5,0.3,5
		c0.2,1.5,0.5,2.9,1,4c0.5,1.1,1.1,2,1.8,2.6c0.7,0.6,1.6,1,2.7,1c2,0,3.4-1,4.4-3c1-2,1.5-5.2,1.5-9.6c0-1.7-0.1-3.4-0.3-4.9
		c-0.2-1.5-0.5-2.9-1-4c-0.5-1.1-1.1-2-1.8-2.7c-0.7-0.7-1.7-1-2.8-1C362.1,154.8,360.1,159,360.1,167.4"/>
	<rect x="392.7" y="149.6" class="st0" width="6.4" height="35.5"/>
	<path class="st0" d="M404.2,149.7c0.6-0.1,1.3-0.2,2.1-0.2c0.8,0,1.5-0.1,2.3-0.2c0.8,0,1.6-0.1,2.3-0.1c0.7,0,1.4,0,2,0
		c2.8,0,5.1,0.4,7,1.3c1.9,0.9,3.4,2.1,4.5,3.7c1.1,1.6,1.9,3.5,2.4,5.7c0.5,2.2,0.7,4.7,0.7,7.4c0,2.5-0.2,4.8-0.7,7.1
		c-0.5,2.2-1.3,4.2-2.4,5.9c-1.2,1.7-2.7,3.1-4.7,4.1c-2,1-4.4,1.5-7.4,1.5c-0.4,0-1,0-1.8-0.1c-0.7,0-1.5-0.1-2.3-0.1
		c-0.8,0-1.6-0.1-2.3-0.2c-0.7,0-1.3-0.1-1.7-0.2V149.7z M413.5,155c-0.5,0-1.1,0-1.7,0c-0.6,0-1,0.1-1.3,0.1v24.5
		c0.1,0,0.3,0.1,0.5,0.1c0.3,0,0.5,0,0.8,0.1c0.3,0,0.6,0,0.8,0c0.3,0,0.4,0,0.5,0c1.5,0,2.8-0.4,3.8-1.1c1-0.7,1.8-1.7,2.3-2.8
		c0.6-1.2,1-2.5,1.2-4.1c0.2-1.5,0.3-3.2,0.3-4.8c0-1.6-0.1-3.1-0.3-4.5c-0.2-1.5-0.5-2.7-1.1-3.8c-0.5-1.1-1.3-2-2.2-2.6
		C416.3,155.4,415,155,413.5,155"/>
	<polygon class="st0" points="431.3,149.6 449.1,149.6 449.1,155.5 437.7,155.5 437.7,164.3 448,164.3 448,170.2 437.7,170.2 
		437.7,179.3 449.3,179.3 449.3,185.2 431.3,185.2 	"/>
	<rect x="453.7" y="149.6" class="st0" width="6.4" height="35.5"/>
	<path class="st0" d="M479.6,177h-8.4l-2.1,8.1h-6.3l10.3-35.8h5l10.4,35.8h-6.7L479.6,177z M472.6,171.9h5.9l-2-8.3l-0.8-5.6h-0.2
		l-0.9,5.6L472.6,171.9z"/>
	<path class="st0" d="M503.1,176c0-1.1-0.3-2-1-2.8c-0.6-0.8-1.4-1.5-2.4-2.2c-1-0.7-2-1.4-3.2-2.1c-1.1-0.7-2.2-1.5-3.1-2.5
		c-1-0.9-1.8-2.1-2.4-3.3c-0.6-1.3-1-2.9-1-4.7c0-1.7,0.3-3.2,0.8-4.4c0.5-1.2,1.2-2.2,2.2-2.9c0.9-0.8,2-1.3,3.2-1.7
		c1.3-0.4,2.6-0.5,4-0.5c1.7,0,3.3,0.2,4.8,0.5c1.5,0.3,2.7,0.8,3.7,1.4l-2,5.6c-0.6-0.4-1.4-0.8-2.6-1.1c-1.1-0.3-2.4-0.5-3.7-0.5
		s-2.3,0.3-3,0.8c-0.7,0.5-1.1,1.3-1.1,2.4c0,1,0.3,1.8,1,2.5c0.6,0.7,1.4,1.4,2.4,2.1c1,0.7,2,1.4,3.1,2.1c1.1,0.7,2.2,1.6,3.1,2.5
		c1,1,1.8,2.1,2.4,3.4c0.6,1.3,1,2.9,1,4.6c0,1.8-0.3,3.3-0.8,4.7c-0.5,1.3-1.3,2.4-2.2,3.3c-1,0.9-2.1,1.5-3.5,2
		c-1.4,0.4-2.9,0.7-4.5,0.7c-2.1,0-3.9-0.2-5.5-0.6c-1.6-0.4-2.8-0.9-3.6-1.4l2.1-5.7c0.7,0.4,1.6,0.8,2.8,1.2
		c1.2,0.4,2.5,0.6,3.8,0.6C501.4,180,503.1,178.7,503.1,176"/>
	<path class="st1" d="M198.7,60.8c0,13.4-10.8,24.2-24.2,24.2h-28.2v37.3h-16.1V6.5h44.3c13.4,0,24.2,10.8,24.2,24.2V60.8z
		 M182.6,30.7c0-4.5-3.5-8.1-8.1-8.1h-28.2v46.2h28.2c4.5,0,8.1-3.5,8.1-8.1V30.7z"/>
	<polygon class="st1" points="206.8,6.5 222.9,6.5 222.9,106.2 263.2,106.2 263.2,122.3 206.8,122.3 	"/>
	<polygon class="st1" points="303.3,83.9 303.3,122.3 287.2,122.3 287.2,83.6 251.9,6.5 269.5,6.5 295.3,61.5 321,6.5 338.6,6.5 	
		"/>
	<path class="st1" d="M411.1,98.1c0,13.4-10.8,24.2-24.2,24.2h-24.2c-13.4,0-24.2-10.8-24.2-24.2V30.7c0-13.4,10.8-24.2,24.2-24.2
		H387c13.4,0,24.2,10.8,24.2,24.2V98.1z M354.7,98.1c0,4.5,3.5,8.1,8.1,8.1H387c4.5,0,8.1-3.5,8.1-8.1V30.7c0-4.5-3.5-8.1-8.1-8.1
		h-24.2c-4.5,0-8.1,3.5-8.1,8.1V98.1z"/>
	<polygon class="st1" points="419.2,122.3 419.2,6.5 435.3,6.5 464.3,58.1 493.3,6.5 509.4,6.5 509.4,122.3 493.3,122.3 493.3,38.4 
		468.8,84.4 459.6,84.4 435.3,38.4 435.3,122.3 	"/>
	<polygon class="st2" points="5.6,77.6 5.6,50.7 112.2,6.5 112.2,34.4 	"/>
	<polygon class="st3" points="112.2,92.1 112.2,121.4 5.6,77.5 5.6,50.7 	"/>
</g>
</svg>
