<?xml version="1.0" encoding="utf-8"?>
<!-- Generator: Adobe Illustrator 19.2.1, SVG Export Plug-In . SVG Version: 6.00 Build 0)  -->
<svg version="1.1" id="Camada_1" xmlns="http://www.w3.org/2000/svg" xmlns:xlink="http://www.w3.org/1999/xlink" x="0px" y="0px"
	 viewBox="0 0 91.1 68.4" style="enable-background:new 0 0 91.1 68.4;" xml:space="preserve">
<style type="text/css">
	.st0{fill:#95C11E;}
	.st1{display:none;}
</style>
<g id="Inicio">
</g>
<g id="Servico">
</g>
<g id="Camada_5">
</g>
<g id="Portfolio">
</g>
<g id="Contato">
	<g>
		<path class="st0" d="M53,24.3L21.3,61.7c-4.1,4.9-10.9,4.9-15.1,0l0,0C2,56.8,2,48.8,6.2,44L37.9,6.6C42,1.7,48.8,1.7,53,6.6l0,0
			C57.1,11.5,57.1,19.5,53,24.3z"/>
		<path class="st0" d="M37.9,24.3l31.7,37.4c4.1,4.9,10.9,4.9,15.1,0l0,0c4.1-4.9,4.1-12.9,0-17.8L53,6.6c-4.1-4.9-10.9-4.9-15.1,0
			l0,0C33.8,11.5,33.8,19.5,37.9,24.3z"/>
	</g>
</g>
<g id="Camada_6">
</g>
<g id="Camada_7" class="st1">
</g>
<g id="Camada_8" class="st1">
</g>
</svg>
