<?xml version="1.0" encoding="utf-8"?>
<!-- Generator: Adobe Illustrator 19.2.1, SVG Export Plug-In . SVG Version: 6.00 Build 0)  -->
<svg version="1.1" id="Camada_1" xmlns="http://www.w3.org/2000/svg" xmlns:xlink="http://www.w3.org/1999/xlink" x="0px" y="0px"
	 viewBox="0 0 422.1 765.9" style="enable-background:new 0 0 422.1 765.9;" xml:space="preserve">
<style type="text/css">
	.st0{opacity:0.45;fill:#0071BC;}
	.st1{opacity:5.000000e-02;fill:#0071BC;}
	.st2{opacity:0.15;fill:#0071BC;}
	.st3{opacity:0.17;fill:#0071BC;}
	.st4{fill:#0071BC;}
	.st5{opacity:0.3;fill:#0071BC;}
	.st6{opacity:0.34;fill:#0071BC;}
	.st7{opacity:0.7;fill:#0071BC;}
</style>
<g>
	<polygon class="st0" points="422.7,81 391.2,81 422.7,140.7 	"/>
	<polygon class="st1" points="268.7,171.1 268.7,300.1 374.9,236.8 	"/>
	<polygon class="st1" points="190.7,171.1 190.7,300.1 296.9,236.8 	"/>
	<polygon class="st2" points="364.2,343 274.2,343 318.3,428.1 	"/>
	<polygon class="st3" points="89,-1.5 0,-2.2 45.7,45.5 	"/>
	<polygon class="st4" points="422.3,177 382.4,177 421.3,252 	"/>
	<polygon class="st4" points="275.2,148.1 320.1,177 321.9,120.4 	"/>
	<polygon class="st5" points="106.3,142.7 157.2,128.3 118.5,94.4 	"/>
	<polygon class="st0" points="356.7,565.6 356.7,694.6 422.5,655.3 421.7,605.9 	"/>
	<polygon class="st6" points="400.7,371.7 400.7,576.3 421.5,563.8 422.6,385.3 	"/>
	<polygon class="st7" points="419.3,419 383.4,355.6 351.1,419.2 	"/>
	<polygon class="st7" points="285.3,767.8 253.3,704.4 221,768 	"/>
</g>
</svg>
