<?xml version="1.0" encoding="utf-8"?>
<!-- Generator: Adobe Illustrator 19.2.1, SVG Export Plug-In . SVG Version: 6.00 Build 0)  -->
<svg version="1.1" id="Camada_1" xmlns="http://www.w3.org/2000/svg" xmlns:xlink="http://www.w3.org/1999/xlink" x="0px" y="0px"
	 viewBox="0 0 376 553.5" style="enable-background:new 0 0 376 553.5;" xml:space="preserve">
<style type="text/css">
	.st0{fill:#68AA00;}
	.st1{fill:#FFFFFF;}
	.st2{fill:#97C261;}
	.st3{fill:#C8DDAC;}
	.st4{fill:#94C08B;}
</style>
<g>
	<g>
		<polygon class="st0" points="192.8,13.4 214.3,24.4 227.5,20.3 232.4,37.1 219.6,41.5 208.6,62.7 212.5,75.2 195.5,81.4 
			191.6,68.2 170.3,56.9 157.4,61.2 151.6,44 165.1,40 176.5,18.8 172.2,5.5 189,0 		"/>
		
			<rect x="173.3" y="22.1" transform="matrix(0.4689 -0.8832 0.8832 0.4689 65.9411 191.2477)" class="st1" width="37.4" height="37.4"/>
		
			<rect x="180.2" y="29.1" transform="matrix(0.4689 -0.8832 0.8832 0.4689 65.8906 191.2202)" class="st0" width="23.5" height="23.5"/>
		
			<rect x="168.9" y="66" transform="matrix(0.4689 -0.8832 0.8832 0.4689 29.1072 193.6359)" class="st0" width="13.3" height="13.3"/>
		
			<rect x="217.8" y="50.6" transform="matrix(0.4689 -0.8832 0.8832 0.4689 68.6743 228.6412)" class="st0" width="13.3" height="13.3"/>
		
			<rect x="153.6" y="17.3" transform="matrix(0.4689 -0.8832 0.8832 0.4689 63.9904 154.2599)" class="st0" width="13.3" height="13.3"/>
		
			<rect x="202.4" y="1.9" transform="matrix(0.4689 -0.8832 0.8832 0.4689 103.5153 189.2012)" class="st0" width="13.3" height="13.3"/>
	</g>
	<g>
		<polygon class="st2" points="33,144.8 73.3,117.5 79,90.2 113.3,97.8 108.7,124.8 135.3,164.8 161.3,170.2 155.7,206.2 
			128.7,200.2 88,226.8 83,253.8 47,247.4 53,219.5 26.7,178.8 -1,173.5 5.7,138.5 		"/>
		
			<rect x="42.9" y="135.1" transform="matrix(0.8368 -0.5475 0.5475 0.8368 -81.4579 72.3505)" class="st1" width="75.5" height="75.5"/>
		
			<rect x="56.9" y="149.2" transform="matrix(0.8368 -0.5475 0.5475 0.8368 -81.5266 72.3525)" class="st2" width="47.4" height="47.4"/>
		
			<rect x="107.5" y="219.4" transform="matrix(0.8368 -0.5475 0.5475 0.8368 -107.7323 104.2323)" class="st2" width="26.9" height="26.9"/>
		
			<rect x="127.8" y="118" transform="matrix(0.8368 -0.5475 0.5475 0.8368 -48.9247 98.7855)" class="st2" width="26.9" height="26.9"/>
		
			<rect x="6.6" y="199" transform="matrix(0.8368 -0.5475 0.5475 0.8368 -113.0464 45.6436)" class="st2" width="26.9" height="26.9"/>
		
			<rect x="26.9" y="97.9" transform="matrix(0.8368 -0.5475 0.5475 0.8368 -54.3887 40.269)" class="st2" width="26.9" height="26.9"/>
	</g>
	<g>
		<polygon class="st3" points="134.3,304.2 226,278.6 253.4,231.5 312.3,267.1 286.8,314.2 311.3,404.8 356.2,430.9 323.3,494 
			277,466.1 185.1,490.2 159.1,537.1 96.4,502.8 124.9,454.9 101.4,363.2 53.5,336.1 87.6,275.4 		"/>
		
			<rect x="131.3" y="312" transform="matrix(0.9676 -0.2526 0.2526 0.9676 -90.7792 64.2921)" class="st1" width="147.4" height="147.4"/>
		
			<rect x="158.7" y="339.5" transform="matrix(0.9676 -0.2526 0.2526 0.9676 -90.8184 64.3111)" class="st3" width="92.7" height="92.7"/>
		
			<rect x="216.1" y="495.5" transform="matrix(0.9676 -0.2526 0.2526 0.9676 -123.9476 78.1548)" class="st3" width="52.6" height="52.6"/>
		
			<rect x="316.8" y="320.5" transform="matrix(0.9676 -0.2526 0.2526 0.9676 -76.475 97.9162)" class="st3" width="52.6" height="52.6"/>
		
			<rect x="42" y="395.1" transform="matrix(0.9676 -0.2526 0.2526 0.9676 -104.2277 30.9189)" class="st3" width="52.6" height="52.6"/>
		
			<rect x="142.5" y="220.5" transform="matrix(0.9676 -0.2526 0.2526 0.9676 -56.867 50.6437)" class="st3" width="52.6" height="52.6"/>
	</g>
	<rect x="189.6" y="142.4" transform="matrix(0.866 -0.5 0.5 0.866 -54.1331 128.3031)" class="st4" width="45.5" height="45.5"/>
</g>
</svg>
