<?xml version="1.0" encoding="utf-8"?>
<!-- Generator: Adobe Illustrator 19.2.1, SVG Export Plug-In . SVG Version: 6.00 Build 0)  -->
<svg version="1.1" id="Camada_1" xmlns="http://www.w3.org/2000/svg" xmlns:xlink="http://www.w3.org/1999/xlink" x="0px" y="0px"
	 viewBox="0 0 219.5 397" style="enable-background:new 0 0 219.5 397;" xml:space="preserve">
<style type="text/css">
	.st0{fill:#97C261;}
	.st1{fill:#FFFFFF;}
	.st2{fill:#C8DDAC;}
</style>
<g>
	<g>
		<polyline class="st0" points="219.5,126.9 194.6,121 171.6,136 151.5,105.4 175.9,90.6 187.3,43.5 172.2,19.7 202.2,0.5 
			219.4,24.7 		"/>
		<path class="st0" d="M282.9,65.9"/>
		<polygon class="st1" points="219.2,115.1 183.3,106.5 200.7,33.1 219,37.5 		"/>
		<polygon class="st0" points="219,100.7 200.2,96.2 211.1,50.1 219,52 		"/>
		<polygon class="st0" points="219.5,164.4 196.8,159 203,132.9 219.5,136.8 		"/>
		
			<rect x="144.9" y="48.4" transform="matrix(0.9729 0.2312 -0.2312 0.9729 18.5813 -34.9263)" class="st0" width="26.9" height="26.9"/>
	</g>
	<g>
		<polyline class="st2" points="219.5,396.2 108.8,396.6 70.2,372.6 18.2,386 0,316.9 54.4,304.6 104.8,224.5 91.6,171.1 
			159.1,154.2 170.1,207.8 219,237.3 219,396 		"/>
		<polygon class="st1" points="151,396.6 58.2,338.8 136.2,213.6 219,265.3 219,359.4 196.2,396 		"/>
		<polygon class="st2" points="174.5,379.2 95.9,330.2 144.9,251.5 219.4,297.9 219.4,307.2 		"/>
		
			<rect x="13.5" y="214.2" transform="matrix(0.8487 0.5289 -0.5289 0.8487 133.1823 15.3335)" class="st2" width="52.6" height="52.6"/>
		<polygon class="st2" points="219.5,214.2 199.5,201.8 219.2,170.2 219.5,194 		"/>
		<path class="st2" d="M151,396.6"/>
	</g>
</g>
</svg>
