<?xml version="1.0" encoding="utf-8"?>
<!-- Generator: Adobe Illustrator 19.2.1, SVG Export Plug-In . SVG Version: 6.00 Build 0)  -->
<svg version="1.1" id="Camada_1" xmlns="http://www.w3.org/2000/svg" xmlns:xlink="http://www.w3.org/1999/xlink" x="0px" y="0px"
	 viewBox="0 0 301.6 765.9" style="enable-background:new 0 0 301.6 765.9;" xml:space="preserve">
<style type="text/css">
	.st0{fill:#00BB8C;}
	.st1{opacity:0.5;fill:#7CD8CA;}
	.st2{fill:#EFF7F8;}
	.st3{opacity:0.88;fill:#D5ECEE;}
	.st4{fill:#00D4C5;}
	.st5{fill:#A4D7DB;}
	.st6{opacity:0.54;fill:#4AD1CB;}
	.st7{opacity:0.38;fill:#55D5CD;}
	.st8{opacity:0.47;fill:#60CCBC;}
	.st9{fill:#B5E3E7;}
	.st10{opacity:0.25;fill:#93D8DC;}
</style>
<polygon class="st0" points="68.3,12.2 88.7,35.9 89,71 65.3,42.4 "/>
<polyline class="st1" points="30,772 30,624 66,624 148,725.9 148,772 30,772 "/>
<polygon class="st2" points="114,280.6 114,136 246,136 299,204 299,280.6 236.2,364.6 214,337.6 158.6,336.6 "/>
<polygon class="st3" points="84,338 214,338 301.6,444.5 111.3,680.2 84,646.6 "/>
<polygon class="st1" points="-1,670 -1,580.6 16,559.8 66,624 30,624 30,670 "/>
<polygon class="st4" points="84,646.6 84,713.6 111.2,680.1 "/>
<polygon class="st5" points="-1.5,428.1 59,352.9 59,509 5,509 -4,501.8 "/>
<polygon class="st6" points="114,337.6 114,365 148,365 165.3,345.1 158.6,337 "/>
<rect x="95" y="338" class="st7" width="19" height="27"/>
<polygon class="st8" points="114,281.1 158.7,338 114,338 "/>
<polygon class="st1" points="95.8,259.1 114,281.1 114,338 96,338 "/>
<polygon class="st9" points="-1,159.8 50.5,95 84,95 84,246 -1,246 "/>
<polygon class="st1" points="116,0.6 116,95 189,95 189,47.6 158.6,10.5 150.3,0.6 "/>
<polygon class="st1" points="38.9,79.7 -2,133.1 -2,79.6 "/>
<polygon class="st10" points="114,365 114,516.6 236.2,364.6 214,337.6 158.7,336.6 165.3,345.1 148,365 "/>
</svg>
