<?xml version="1.0" encoding="utf-8"?>
<!-- Generator: Adobe Illustrator 19.2.1, SVG Export Plug-In . SVG Version: 6.00 Build 0)  -->
<svg version="1.1" id="Camada_1" xmlns="http://www.w3.org/2000/svg" xmlns:xlink="http://www.w3.org/1999/xlink" x="0px" y="0px"
	 viewBox="0 0 200 200" style="enable-background:new 0 0 200 200;" xml:space="preserve">
<style type="text/css">
	.st0{opacity:0.6;}
	.st1{clip-path:url(#SVGID_2_);}
	.st2{clip-path:url(#SVGID_4_);}
</style>
<g class="st0">
	<defs>
		<path id="SVGID_1_" class="st0" d="M126.8,44.9H118v-8h8.8V44.9z M82.6,44.9h-8.8v-8h8.8V44.9z M131.2,22.6l11.5-10.3
			c1.8-1.6,1.8-4,0-5.6c-1.8-1.6-4.4-1.6-6.2,0l-13.3,11.9c-6.2-4-14.1-5.6-23-5.6s-16.8,1.6-23.9,4.8L64.1,5.9
			c-1.8-0.8-5.3-0.8-7.1,0c-0.9,1.6-0.9,4.8,0,6.4l11.5,10.3c-12.4,8.7-21.2,22.3-21.2,38.2h106.1C153.3,44.9,144.5,30.6,131.2,22.6
			z M175.4,68.7c-7.1,0-13.3,5.6-13.3,11.9v55.7c0,6.4,6.2,11.9,13.3,11.9c7.1,0,13.3-5.6,13.3-11.9V80.7
			C188.7,74.3,182.5,68.7,175.4,68.7z M25.2,68.7c-7.1,0-13.3,5.6-13.3,11.9v55.7c0,6.4,6.2,11.9,13.3,11.9s13.3-5.6,13.3-11.9V80.7
			C38.4,74.3,32.2,68.7,25.2,68.7z M47.3,148.3c0,4.8,3.5,8,8.8,8H65v27.8c0,6.4,6.2,11.9,13.3,11.9s13.3-5.6,13.3-11.9v-27.8h17.7
			v27.8c0,6.4,6.2,11.9,13.3,11.9s13.3-5.6,13.3-11.9v-27.8h8.8c5.3,0,8.8-3.2,8.8-8V68.7H47.3V148.3z"/>
	</defs>
	<clipPath id="SVGID_2_">
		<use xlink:href="#SVGID_1_"  style="overflow:visible;"/>
	</clipPath>
	<g class="st1">
		<defs>
			<rect id="SVGID_3_" x="-1270.7" y="-5224" width="4209.6" height="8221.8"/>
		</defs>
		<clipPath id="SVGID_4_">
			<use xlink:href="#SVGID_3_"  style="overflow:visible;"/>
		</clipPath>
		<rect x="-8.6" y="-15.3" class="st2" width="217.9" height="231.8"/>
	</g>
</g>
</svg>
