<?xml version="1.0" encoding="utf-8"?>
<!-- Generator: Adobe Illustrator 19.2.1, SVG Export Plug-In . SVG Version: 6.00 Build 0)  -->
<svg version="1.1" id="Camada_1" xmlns="http://www.w3.org/2000/svg" xmlns:xlink="http://www.w3.org/1999/xlink" x="0px" y="0px"
	 viewBox="0 0 200 200" style="enable-background:new 0 0 200 200;" xml:space="preserve">
<style type="text/css">
	.st0{fill:#666666;}
	.st1{fill:#FFFFFF;}
</style>
<g>
	<path class="st0" d="M141.1,194.9H62.6c-19.6,0-20.7,2.3-20.7-23v-143c0-25.3,1.2-23,20.7-23h81.5c19.6,0,14.8,5.4,14.8,30.7v135.3
		C158.9,197.2,160.7,194.9,141.1,194.9z"/>
	<path class="st1" d="M133.8,168.8H69.8c-16,0-16.9,1.7-16.9-17.5V42.6c0-19.2,1-17.5,16.9-17.5h66.5c16,0,12.1,4.1,12.1,23.3v102.8
		C148.3,170.5,149.8,168.8,133.8,168.8z"/>
	<circle class="st1" cx="101.8" cy="15.2" r="4.3"/>
	<circle class="st1" cx="100.6" cy="182.5" r="5.5"/>
</g>
</svg>
