<?xml version="1.0" encoding="utf-8"?>
<!-- Generator: Adobe Illustrator 19.2.1, SVG Export Plug-In . SVG Version: 6.00 Build 0)  -->
<svg version="1.1" id="Camada_1" xmlns="http://www.w3.org/2000/svg" xmlns:xlink="http://www.w3.org/1999/xlink" x="0px" y="0px"
	 viewBox="0 0 200 200" style="enable-background:new 0 0 200 200;" xml:space="preserve">
<style type="text/css">
	.st0{fill:#666666;}
	.st1{fill:#FFFFFF;}
</style>
<g>
	<path class="st0" d="M152.7,194.9H50.5c-25.4,0-27,2.3-27-23.1V28.2c0-25.4,1.5-23.1,27-23.1h106c25.4,0,19.3,5.4,19.3,30.8v135.9
		C175.8,197.3,178.1,194.9,152.7,194.9z"/>
	<path class="st1" d="M141.6,161H60.8c-20.1,0-21.3,1.7-21.3-17.1V37.8c0-18.8,1.2-17.1,21.3-17.1h83.8c20.1,0,15.2,4,15.2,22.8
		v100.4C159.9,162.7,161.7,161,141.6,161z"/>
	<circle class="st1" cx="100.2" cy="178.9" r="9.2"/>
</g>
</svg>
