<?xml version="1.0" encoding="utf-8"?>
<!-- Generator: Adobe Illustrator 19.2.1, SVG Export Plug-In . SVG Version: 6.00 Build 0)  -->
<svg version="1.1" id="Camada_1" xmlns="http://www.w3.org/2000/svg" xmlns:xlink="http://www.w3.org/1999/xlink" x="0px" y="0px"
	 viewBox="0 0 305.8 1400" style="enable-background:new 0 0 305.8 1400;" xml:space="preserve">
<style type="text/css">
	.st0{opacity:0.7;}
	.st1{opacity:0.5;fill:#7CD8CA;}
	.st2{fill:#EFF7F8;}
	.st3{opacity:0.88;fill:#D5ECEE;}
	.st4{fill:#00CEB0;}
	.st5{fill:#00D4C5;}
	.st6{fill:#A4D7DB;}
	.st7{opacity:0.54;fill:#4AD1CB;}
	.st8{opacity:0.38;fill:#55D5CD;}
	.st9{opacity:0.47;fill:#60CCBC;}
	.st10{fill:#B5E3E7;}
	.st11{opacity:0.25;fill:#93D8DC;}
</style>
<g class="st0">
	<polyline class="st1" points="34,735 34,578 70.1,578 152,686.6 152,735 34,735 	"/>
	<polygon class="st2" points="118,214 118,60 250.1,60 303,132.7 303,214 240.3,303.1 218.1,274.5 162.7,273.4 	"/>
	<polygon class="st3" points="88,274 218.1,274 305.8,387.4 115.3,637.8 88,602.4 	"/>
	<polygon class="st1" points="3,627 3,532.4 20.1,510.1 70.1,578 34,578 34,627 	"/>
	<polygon class="st4" points="34,578 70.1,578 86.1,599.7 66.8,627 34,627 	"/>
	<polygon class="st5" points="88,602.4 88,673.5 115.3,638 	"/>
	<polygon class="st6" points="2.6,370.6 63,290.7 63,456 9.1,456 0.1,448.5 	"/>
	<polygon class="st7" points="118,274.5 118,303 152.1,303 169.5,282.2 162.7,273.7 	"/>
	<rect x="99" y="274" class="st8" width="19" height="29"/>
	<polygon class="st9" points="118,214.6 162.8,274 118,274 	"/>
	<polygon class="st1" points="99.9,190.7 118,214.6 118,274 100.1,274 	"/>
	<polygon class="st10" points="3,85.8 54.6,16 88,16 88,176 3,176 	"/>
	<rect x="120" class="st1" width="73" height="16"/>
	<polygon class="st1" points="43,0.7 2,57.4 2,0.7 	"/>
	<polygon class="st11" points="118,303 118,464.4 240.3,303.1 218.1,274.5 162.8,273.4 169.5,282.2 152.1,303 	"/>
</g>
<g class="st0">
	<polyline class="st1" points="34,735 34,891 70.1,891 152,783.5 152,735 34,735 	"/>
	<polygon class="st2" points="118,1075.7 118,974 205.4,974 240,1021.9 240,1075.7 198.7,1134.6 184.1,1115.7 147.5,1115 	"/>
	<polygon class="st3" points="88,1106 175.4,1106 234.3,1182 106.4,1350 88,1326.1 	"/>
	<polygon class="st1" points="3,843 3,937.7 20.1,959.5 70.1,891 34,891 34,843 	"/>
	<polygon class="st4" points="34,891 70.1,891 86.1,869.8 66.8,843 34,843 	"/>
	<polygon class="st5" points="88,867.7 88,796.6 115.3,832.1 	"/>
	<polygon class="st5" points="175,851 175,953.8 135.6,902.4 	"/>
	<polygon class="st6" points="2.6,1202 63,1122.2 63,1287 9.1,1287 0.1,1279.8 	"/>
	<polygon class="st7" points="118,1105.9 118,1135 152.1,1135 169.5,1113.9 162.7,1105.3 	"/>
	<rect x="99" y="1106" class="st8" width="19" height="29"/>
	<polygon class="st9" points="118,1046 162.8,1106 118,1106 	"/>
	<polygon class="st1" points="99.9,1022.4 118,1046 118,1106 100.1,1106 	"/>
	<polygon class="st10" points="3,1023 54.6,954 88,954 88,1114 3,1114 	"/>
	<polygon class="st1" points="43,832.2 2,888.9 2,832.1 	"/>
</g>
</svg>
