<?xml version="1.0" encoding="utf-8"?>
<!-- Generator: Adobe Illustrator 19.2.1, SVG Export Plug-In . SVG Version: 6.00 Build 0)  -->
<svg version="1.1" id="Camada_1" xmlns="http://www.w3.org/2000/svg" xmlns:xlink="http://www.w3.org/1999/xlink" x="0px" y="0px"
	 viewBox="0 0 305.8 1400" style="enable-background:new 0 0 305.8 1400;" xml:space="preserve">
<style type="text/css">
	.st0{opacity:0.5;fill:#7CD8CA;}
	.st1{fill:#EFF7F8;}
	.st2{opacity:0.88;fill:#D5ECEE;}
	.st3{fill:#00D4C5;}
	.st4{opacity:0.54;fill:#4AD1CB;}
	.st5{opacity:0.38;fill:#55D5CD;}
	.st6{opacity:0.47;fill:#60CCBC;}
</style>
<g>
	<polyline class="st0" points="305,844.7 217,954.7 217,1018 306,1018 	"/>
	<path class="st0" d="M306.1,1018"/>
	<polygon class="st1" points="264,572.7 264,706 143.5,706 95,643 95,572.7 152.4,495.6 172.7,520.4 223.2,521.3 	"/>
	<polygon class="st2" points="305,533 184.9,533 103.6,433.7 279.9,214 305,245.2 	"/>
	<polygon class="st3" points="305,844.7 305,937.6 267.3,891.1 	"/>
	<polygon class="st3" points="185,866.5 185,732.1 239.5,799.3 	"/>
	<polygon class="st4" points="264,533.1 264,496 217,496 193.1,523.1 202.3,534.1 	"/>
	<rect x="264" y="496" class="st5" width="26" height="37"/>
	<polygon class="st6" points="264,611.4 202.3,533 264,533 	"/>
	<polygon class="st0" points="289.1,642.3 264,611.4 264,533 288.9,533 	"/>
</g>
<polygon class="st6" points="237,1060.3 281.8,1117 237,1117 "/>
</svg>
