<?xml version="1.0" encoding="utf-8"?>
<!-- Generator: Adobe Illustrator 19.2.1, SVG Export Plug-In . SVG Version: 6.00 Build 0)  -->
<svg version="1.1" id="Camada_1" xmlns="http://www.w3.org/2000/svg" xmlns:xlink="http://www.w3.org/1999/xlink" x="0px" y="0px"
	 viewBox="0 0 45 36" style="enable-background:new 0 0 45 36;" xml:space="preserve">
<style type="text/css">
	.st0{opacity:0.55;}
</style>
<g class="st0">
	<path d="M19.9,21.8L32.2,7.3c1.6-1.9,4.3-1.9,5.9,0l0,0c1.6,1.9,1.6,5,0,6.9L25.8,28.7c-1.6,1.9-4.3,1.9-5.9,0l0,0
		C18.3,26.8,18.3,23.7,19.9,21.8z"/>
	<path d="M25.8,21.8L13.4,7.3c-1.6-1.9-4.3-1.9-5.9,0l0,0c-1.6,1.9-1.6,5,0,6.9l12.4,14.6c1.6,1.9,4.3,1.9,5.9,0l0,0
		C27.4,26.8,27.4,23.7,25.8,21.8z"/>
</g>
</svg>
