<?xml version="1.0" encoding="utf-8"?>
<!-- Generator: Adobe Illustrator 19.2.1, SVG Export Plug-In . SVG Version: 6.00 Build 0)  -->
<svg version="1.1" id="Camada_1" xmlns="http://www.w3.org/2000/svg" xmlns:xlink="http://www.w3.org/1999/xlink" x="0px" y="0px"
	 viewBox="0 0 196 53" style="enable-background:new 0 0 196 53;" xml:space="preserve">
<style type="text/css">
	.st0{fill:#585857;}
	.st1{fill:#859C25;}
	.st2{fill:#9FBD37;}
</style>
<g>
	<path class="st0" d="M78.4,26.3c0,4.8-3.8,8.6-8.6,8.6h-10v13.3H54V7h15.8c4.8,0,8.6,3.8,8.6,8.6V26.3z M72.7,15.6
		c0-1.6-1.3-2.9-2.9-2.9h-10v16.4h10c1.6,0,2.9-1.3,2.9-2.9V15.6z"/>
	<polygon class="st0" points="81.3,7 87,7 87,42.5 101.3,42.5 101.3,48.2 81.3,48.2 	"/>
	<polygon class="st0" points="115.6,34.5 115.6,48.2 109.9,48.2 109.9,34.4 97.3,7 103.6,7 112.8,26.6 122,7 128.2,7 	"/>
	<path class="st0" d="M154,39.6c0,4.8-3.8,8.6-8.6,8.6h-8.6c-4.8,0-8.6-3.8-8.6-8.6v-24c0-4.8,3.8-8.6,8.6-8.6h8.6
		c4.8,0,8.6,3.8,8.6,8.6V39.6z M133.9,39.6c0,1.6,1.3,2.9,2.9,2.9h8.6c1.6,0,2.9-1.3,2.9-2.9v-24c0-1.6-1.3-2.9-2.9-2.9h-8.6
		c-1.6,0-2.9,1.3-2.9,2.9V39.6z"/>
	<polygon class="st0" points="156.9,48.2 156.9,7 162.6,7 173,25.4 183.3,7 189,7 189,48.2 183.3,48.2 183.3,18.3 174.6,34.7 
		171.3,34.7 162.6,18.3 162.6,48.2 	"/>
	<polygon class="st1" points="9.6,32.3 9.6,22.7 47.6,7 47.6,16.9 	"/>
	<polygon class="st2" points="47.6,37.4 47.6,47.9 9.6,32.2 9.6,22.7 	"/>
</g>
</svg>
